<svg width="180" height="40" viewBox="0 0 180 40" fill="none" xmlns="http://www.w3.org/2000/svg">
<path d="M62.08 17.52C63.136 17.52 63.9627 17.824 64.56 18.432C65.168 19.04 65.472 19.936 65.472 21.12V26H64.336V21.232C64.336 20.3573 64.1227 19.6907 63.696 19.232C63.28 18.7733 62.688 18.544 61.92 18.544C61.0453 18.544 60.3573 18.816 59.856 19.36C59.3547 19.8933 59.104 20.6347 59.104 21.584V26H57.968V21.232C57.968 20.3573 57.7547 19.6907 57.328 19.232C56.912 18.7733 56.3147 18.544 55.536 18.544C54.672 18.544 53.984 18.816 53.472 19.36C52.9707 19.8933 52.72 20.6347 52.72 21.584V26H51.584V17.584H52.672V19.12C52.9707 18.608 53.3867 18.2133 53.92 17.936C54.4533 17.6587 55.0667 17.52 55.76 17.52C56.464 17.52 57.072 17.6693 57.584 17.968C58.1067 18.2667 58.496 18.7093 58.752 19.296C59.0613 18.7413 59.504 18.3093 60.08 18C60.6667 17.68 61.3333 17.52 62.08 17.52ZM71.4968 17.52C72.5954 17.52 73.4381 17.7973 74.0248 18.352C74.6114 18.896 74.9048 19.7067 74.9048 20.784V26H73.8168V24.688C73.5608 25.1253 73.1821 25.4667 72.6808 25.712C72.1901 25.9573 71.6034 26.08 70.9208 26.08C69.9821 26.08 69.2354 25.856 68.6808 25.408C68.1261 24.96 67.8488 24.368 67.8488 23.632C67.8488 22.9173 68.1048 22.3413 68.6168 21.904C69.1394 21.4667 69.9661 21.248 71.0968 21.248H73.7688V20.736C73.7688 20.0107 73.5661 19.4613 73.1608 19.088C72.7554 18.704 72.1634 18.512 71.3848 18.512C70.8514 18.512 70.3394 18.6027 69.8488 18.784C69.3581 18.9547 68.9368 19.1947 68.5848 19.504L68.0728 18.656C68.4994 18.2933 69.0114 18.016 69.6088 17.824C70.2061 17.6213 70.8354 17.52 71.4968 17.52ZM71.0968 25.184C71.7368 25.184 72.2861 25.04 72.7448 24.752C73.2034 24.4533 73.5448 24.0267 73.7688 23.472V22.096H71.1288C69.6888 22.096 68.9688 22.5973 68.9688 23.6C68.9688 24.0907 69.1554 24.48 69.5288 24.768C69.9021 25.0453 70.4248 25.184 71.0968 25.184ZM77.9903 17.584H79.1263V26H77.9903V17.584ZM78.5663 15.744C78.3316 15.744 78.1343 15.664 77.9743 15.504C77.8143 15.344 77.7343 15.152 77.7343 14.928C77.7343 14.7147 77.8143 14.528 77.9743 14.368C78.1343 14.208 78.3316 14.128 78.5663 14.128C78.8009 14.128 78.9983 14.208 79.1583 14.368C79.3183 14.5173 79.3983 14.6987 79.3983 14.912C79.3983 15.1467 79.3183 15.344 79.1583 15.504C78.9983 15.664 78.8009 15.744 78.5663 15.744ZM82.2871 14.128H83.4231V26H82.2871V14.128ZM93.304 14.704C94.7333 14.704 96.008 15.0027 97.128 15.6C98.2587 16.1867 99.1387 17.0187 99.768 18.096C100.397 19.1627 100.712 20.384 100.712 21.76C100.712 23.1147 100.477 24.176 100.008 24.944C99.5387 25.7013 98.888 26.08 98.056 26.08C97.5333 26.08 97.1067 25.9253 96.776 25.616C96.456 25.3067 96.28 24.88 96.248 24.336C95.928 24.8907 95.4907 25.3227 94.936 25.632C94.3813 25.9307 93.752 26.08 93.048 26.08C92.3013 26.08 91.624 25.904 91.016 25.552C90.4187 25.1893 89.944 24.6933 89.592 24.064C89.2507 23.4347 89.08 22.7253 89.08 21.936C89.08 21.1467 89.2507 20.4427 89.592 19.824C89.944 19.1947 90.4187 18.704 91.016 18.352C91.624 18 92.3013 17.824 93.048 17.824C93.7307 17.824 94.344 17.9733 94.888 18.272C95.4427 18.56 95.8853 18.9707 96.216 19.504V17.888H97.256V23.952C97.256 24.3787 97.3467 24.688 97.528 24.88C97.7093 25.072 97.9493 25.168 98.248 25.168C98.7493 25.168 99.144 24.8693 99.432 24.272C99.7307 23.6747 99.88 22.8427 99.88 21.776C99.88 20.5387 99.6027 19.4507 99.048 18.512C98.4933 17.5627 97.7147 16.8267 96.712 16.304C95.72 15.7813 94.584 15.52 93.304 15.52C92.0133 15.52 90.8667 15.792 89.864 16.336C88.872 16.8693 88.0987 17.6267 87.544 18.608C86.9893 19.5787 86.712 20.688 86.712 21.936C86.712 23.184 86.984 24.2987 87.528 25.28C88.0827 26.2613 88.8507 27.024 89.832 27.568C90.824 28.112 91.96 28.384 93.24 28.384C93.7413 28.384 94.264 28.3253 94.808 28.208C95.3627 28.0907 95.864 27.9147 96.312 27.68L96.584 28.464C96.1253 28.6987 95.592 28.88 94.984 29.008C94.3867 29.136 93.8053 29.2 93.24 29.2C91.7893 29.2 90.504 28.8907 89.384 28.272C88.264 27.6533 87.3893 26.7947 86.76 25.696C86.1413 24.5867 85.832 23.3333 85.832 21.936C85.832 20.528 86.1467 19.28 86.776 18.192C87.4053 17.0933 88.2853 16.24 89.416 15.632C90.5573 15.0133 91.8533 14.704 93.304 14.704ZM93.192 25.152C93.768 25.152 94.2853 25.0187 94.744 24.752C95.2027 24.4853 95.5653 24.112 95.832 23.632C96.0987 23.1413 96.232 22.576 96.232 21.936C96.232 21.3067 96.0987 20.752 95.832 20.272C95.5653 19.7813 95.2027 19.408 94.744 19.152C94.2853 18.8853 93.768 18.752 93.192 18.752C92.6053 18.752 92.0773 18.8853 91.608 19.152C91.1493 19.4187 90.7867 19.792 90.52 20.272C90.264 20.752 90.136 21.3067 90.136 21.936C90.136 22.5653 90.264 23.1253 90.52 23.616C90.7867 24.096 91.1493 24.4747 91.608 24.752C92.0773 25.0187 92.6053 25.152 93.192 25.152ZM110.187 17.584L105.979 27.008C105.638 27.7973 105.243 28.3573 104.795 28.688C104.347 29.0187 103.809 29.184 103.179 29.184C102.774 29.184 102.395 29.12 102.043 28.992C101.691 28.864 101.387 28.672 101.131 28.416L101.659 27.568C102.086 27.9947 102.598 28.208 103.195 28.208C103.579 28.208 103.905 28.1013 104.171 27.888C104.449 27.6747 104.705 27.312 104.939 26.8L105.307 25.984L101.547 17.584H102.731L105.899 24.736L109.067 17.584H110.187ZM114.481 17.52C115.58 17.52 116.422 17.7973 117.009 18.352C117.596 18.896 117.889 19.7067 117.889 20.784V26H116.801V24.688C116.545 25.1253 116.166 25.4667 115.665 25.712C115.174 25.9573 114.588 26.08 113.905 26.08C112.966 26.08 112.22 25.856 111.665 25.408C111.11 24.96 110.833 24.368 110.833 23.632C110.833 22.9173 111.089 22.3413 111.601 21.904C112.124 21.4667 112.95 21.248 114.081 21.248H116.753V20.736C116.753 20.0107 116.55 19.4613 116.145 19.088C115.74 18.704 115.148 18.512 114.369 18.512C113.836 18.512 113.324 18.6027 112.833 18.784C112.342 18.9547 111.921 19.1947 111.569 19.504L111.057 18.656C111.484 18.2933 111.996 18.016 112.593 17.824C113.19 17.6213 113.82 17.52 114.481 17.52ZM114.081 25.184C114.721 25.184 115.27 25.04 115.729 24.752C116.188 24.4533 116.529 24.0267 116.753 23.472V22.096H114.113C112.673 22.096 111.953 22.5973 111.953 23.6C111.953 24.0907 112.14 24.48 112.513 24.768C112.886 25.0453 113.409 25.184 114.081 25.184ZM125.263 17.52C126.319 17.52 127.156 17.8293 127.775 18.448C128.404 19.056 128.719 19.9467 128.719 21.12V26H127.583V21.232C127.583 20.3573 127.364 19.6907 126.927 19.232C126.489 18.7733 125.865 18.544 125.055 18.544C124.148 18.544 123.428 18.816 122.895 19.36C122.372 19.8933 122.111 20.6347 122.111 21.584V26H120.975V17.584H122.063V19.136C122.372 18.624 122.799 18.2293 123.343 17.952C123.897 17.664 124.537 17.52 125.263 17.52ZM139.514 14.128V26H138.426V24.336C138.085 24.9013 137.631 25.3333 137.066 25.632C136.511 25.9307 135.882 26.08 135.178 26.08C134.389 26.08 133.674 25.8987 133.034 25.536C132.394 25.1733 131.893 24.6667 131.53 24.016C131.167 23.3653 130.986 22.624 130.986 21.792C130.986 20.96 131.167 20.2187 131.53 19.568C131.893 18.9173 132.394 18.416 133.034 18.064C133.674 17.7013 134.389 17.52 135.178 17.52C135.861 17.52 136.474 17.664 137.018 17.952C137.573 18.2293 138.026 18.64 138.378 19.184V14.128H139.514ZM135.274 25.072C135.861 25.072 136.389 24.9387 136.858 24.672C137.338 24.3947 137.711 24.0053 137.978 23.504C138.255 23.0027 138.394 22.432 138.394 21.792C138.394 21.152 138.255 20.5813 137.978 20.08C137.711 19.5787 137.338 19.1947 136.858 18.928C136.389 18.6507 135.861 18.512 135.274 18.512C134.677 18.512 134.138 18.6507 133.658 18.928C133.189 19.1947 132.815 19.5787 132.538 20.08C132.271 20.5813 132.138 21.152 132.138 21.792C132.138 22.432 132.271 23.0027 132.538 23.504C132.815 24.0053 133.189 24.3947 133.658 24.672C134.138 24.9387 134.677 25.072 135.274 25.072ZM150.006 22.144H142.966C143.03 23.0187 143.366 23.728 143.974 24.272C144.582 24.8053 145.35 25.072 146.278 25.072C146.8 25.072 147.28 24.9813 147.718 24.8C148.155 24.608 148.534 24.3307 148.854 23.968L149.494 24.704C149.12 25.152 148.651 25.4933 148.086 25.728C147.531 25.9627 146.918 26.08 146.246 26.08C145.382 26.08 144.614 25.8987 143.942 25.536C143.28 25.1627 142.763 24.6507 142.39 24C142.016 23.3493 141.83 22.6133 141.83 21.792C141.83 20.9707 142.006 20.2347 142.358 19.584C142.72 18.9333 143.211 18.4267 143.83 18.064C144.459 17.7013 145.163 17.52 145.942 17.52C146.72 17.52 147.419 17.7013 148.038 18.064C148.656 18.4267 149.142 18.9333 149.494 19.584C149.846 20.224 150.022 20.96 150.022 21.792L150.006 22.144ZM145.942 18.496C145.131 18.496 144.448 18.7573 143.894 19.28C143.35 19.792 143.04 20.464 142.966 21.296H148.934C148.859 20.464 148.544 19.792 147.99 19.28C147.446 18.7573 146.763 18.496 145.942 18.496ZM157.46 26L154.788 22.48L152.1 26H150.82L154.148 21.68L150.98 17.584H152.26L154.788 20.88L157.316 17.584H158.564L155.396 21.68L158.756 26H157.46ZM160.759 26.08C160.524 26.08 160.321 25.9947 160.151 25.824C159.991 25.6533 159.911 25.4453 159.911 25.2C159.911 24.9547 159.991 24.752 160.151 24.592C160.321 24.4213 160.524 24.336 160.759 24.336C160.993 24.336 161.196 24.4213 161.367 24.592C161.537 24.752 161.623 24.9547 161.623 25.2C161.623 25.4453 161.537 25.6533 161.367 25.824C161.196 25.9947 160.993 26.08 160.759 26.08ZM165.125 19.232C165.392 18.6667 165.786 18.24 166.309 17.952C166.842 17.664 167.498 17.52 168.277 17.52V18.624L168.005 18.608C167.12 18.608 166.426 18.88 165.925 19.424C165.424 19.968 165.173 20.7307 165.173 21.712V26H164.037V17.584H165.125V19.232ZM178.043 17.584V26H176.955V24.464C176.656 24.976 176.246 25.376 175.723 25.664C175.2 25.9413 174.603 26.08 173.931 26.08C172.832 26.08 171.963 25.776 171.323 25.168C170.694 24.5493 170.379 23.648 170.379 22.464V17.584H171.515V22.352C171.515 23.2373 171.734 23.9093 172.171 24.368C172.608 24.8267 173.232 25.056 174.043 25.056C174.928 25.056 175.627 24.7893 176.139 24.256C176.651 23.712 176.907 22.96 176.907 22V17.584H178.043Z" fill="white"/>
<circle cx="20" cy="20" r="20" fill="#2B7AF1"/>
<path d="M28.4025 13H11.5975C11.4391 13.0002 11.2871 13.0609 11.1751 13.1687C11.0631 13.2766 11.0001 13.4228 11 13.5753V14.7327C11 14.786 11.0601 14.8473 11.1092 14.872L19.9423 19.7282C19.9649 19.7406 19.9905 19.7471 20.0166 19.7469C20.0432 19.7469 20.0694 19.7401 20.0923 19.7271L28.6585 14.8767C28.7066 14.8509 28.8343 14.7825 28.8822 14.751C28.9402 14.7129 29 14.6785 29 14.6103V13.5751C28.9998 13.4226 28.9368 13.2765 28.8248 13.1686C28.7128 13.0608 28.5609 13.0002 28.4025 13Z" fill="white"/>
<path d="M28.9254 16.4778C28.9024 16.4651 28.8763 16.4586 28.8498 16.4587C28.8234 16.4589 28.7974 16.4658 28.7746 16.4787L23.927 19.2239C23.9077 19.2347 23.8911 19.2496 23.8786 19.2674C23.8661 19.2853 23.8579 19.3056 23.8546 19.3269C23.8514 19.3481 23.8531 19.3699 23.8598 19.3904C23.8664 19.411 23.8778 19.4298 23.8931 19.4455L28.7414 24.4758C28.7553 24.4904 28.7722 24.502 28.7909 24.5099C28.8097 24.5178 28.83 24.5218 28.8506 24.5217C28.8901 24.5217 28.9281 24.5065 28.9561 24.4796C28.9841 24.4526 28.9999 24.4161 28.9999 24.378V16.6026C29 16.5774 28.9932 16.5525 28.9801 16.5306C28.967 16.5086 28.9481 16.4904 28.9254 16.4778Z" fill="white"/>
<path d="M22.53 20.1457C22.507 20.1216 22.4761 20.1058 22.4425 20.1009C22.4088 20.0961 22.3745 20.1025 22.3451 20.1191L20.4021 21.2196C20.2882 21.2829 20.1592 21.3166 20.0278 21.3175C19.8963 21.3183 19.7668 21.2862 19.6521 21.2243L17.9421 20.2841C17.9145 20.2689 17.8826 20.2626 17.8511 20.2661C17.8195 20.2696 17.7899 20.2827 17.7666 20.3034L11.273 26.1008C11.256 26.1161 11.2429 26.135 11.2349 26.156C11.2268 26.1771 11.2239 26.1997 11.2265 26.2219C11.2291 26.2442 11.2371 26.2656 11.2498 26.2844C11.2625 26.3032 11.2796 26.3189 11.2997 26.3303C11.4007 26.3874 11.4981 26.4146 11.5973 26.4146H28.2304C28.2595 26.4147 28.288 26.4065 28.3123 26.3911C28.3366 26.3757 28.3557 26.3538 28.3672 26.328C28.3788 26.3024 28.3824 26.2741 28.3775 26.2465C28.3726 26.219 28.3594 26.1934 28.3396 26.173L22.53 20.1457Z" fill="white"/>
<path d="M16.3378 19.6179C16.355 19.6026 16.3682 19.5836 16.3764 19.5625C16.3846 19.5413 16.3875 19.5186 16.3849 19.4962C16.3822 19.4738 16.3742 19.4523 16.3613 19.4335C16.3485 19.4146 16.3312 19.3989 16.3109 19.3877L11.2228 16.5905C11.2001 16.5781 11.1744 16.5716 11.1483 16.5718C11.1222 16.5719 11.0965 16.5787 11.074 16.5913C11.0514 16.604 11.0327 16.6221 11.0197 16.644C11.0068 16.6658 11 16.6905 11 16.7156V24.0551C10.9998 24.0831 11.0082 24.1106 11.0241 24.1341C11.04 24.1576 11.0627 24.1761 11.0894 24.1873C11.1161 24.1985 11.1456 24.2019 11.1743 24.1971C11.203 24.1924 11.2296 24.1796 11.2508 24.1604L16.3378 19.6179Z" fill="white"/>
</svg>
