<svg width="40" height="40" viewBox="0 0 40 40" fill="none" xmlns="http://www.w3.org/2000/svg">
<circle cx="20" cy="20" r="20" fill="#2B7AF1"/>
<path d="M20 11.1423C18.1773 11.1445 16.4299 11.8695 15.141 13.1583C13.8522 14.4472 13.1272 16.1946 13.125 18.0173C13.1228 19.5068 13.6094 20.9559 14.51 22.1423C14.51 22.1423 14.6975 22.3892 14.7281 22.4248L20 28.6423L25.2744 22.4217C25.3019 22.3886 25.49 22.1423 25.49 22.1423L25.4906 22.1405C26.3908 20.9546 26.8771 19.5062 26.875 18.0173C26.8729 16.1946 26.1478 14.4472 24.859 13.1583C23.5701 11.8695 21.8227 11.1445 20 11.1423ZM22.25 21.1423L20 19.7105L17.75 21.1423L18.125 18.5961L16.25 16.8755L18.875 16.5586L20 14.2673L21.195 16.5592L23.75 16.8755L21.875 18.5961L22.25 21.1423Z" fill="white"/>
</svg>
