<svg width="502" height="128" viewBox="0 0 502 128" fill="none" xmlns="http://www.w3.org/2000/svg">
<circle cx="20" cy="26.9692" r="20" fill="#2B7AF1"/>
<path d="M26.5808 18.9692H14.4192C13.0462 18.9692 12 20.0154 12 21.3885V33.55C12 34.9231 13.0462 35.9692 14.4192 35.9692H26.5808C27.9538 35.9692 29 34.9231 29 33.55V21.3885C29 20.0154 27.9538 18.9692 26.5808 18.9692ZM20.5 32.5692C23.3115 32.5692 25.6 30.3462 25.6 27.6654C25.6 27.2077 25.5346 26.6846 25.4038 26.2923H26.8423V33.2231C26.8423 33.55 26.5808 33.8769 26.1885 33.8769H14.8115C14.4846 33.8769 14.1577 33.6154 14.1577 33.2231V26.2269H15.6615C15.5308 26.6846 15.4654 27.1423 15.4654 27.6C15.4 30.3462 17.6885 32.5692 20.5 32.5692ZM20.5 30.6077C18.6692 30.6077 17.2308 29.1692 17.2308 27.4039C17.2308 25.6385 18.6692 24.2 20.5 24.2C22.3308 24.2 23.7692 25.6385 23.7692 27.4039C23.7692 29.2346 22.3308 30.6077 20.5 30.6077ZM26.7769 23.6115C26.7769 24.0039 26.45 24.3308 26.0577 24.3308H24.2269C23.8346 24.3308 23.5077 24.0039 23.5077 23.6115V21.8462C23.5077 21.4539 23.8346 21.1269 24.2269 21.1269H26.0577C26.45 21.1269 26.7769 21.4539 26.7769 21.8462V23.6115Z" fill="white"/>
<path d="M65.094 23.4292C66.33 23.4292 67.278 23.7412 67.938 24.3652C68.598 24.9772 68.928 25.8892 68.928 27.1012V32.9692H67.704V31.4932C67.416 31.9852 66.99 32.3692 66.426 32.6452C65.874 32.9212 65.214 33.0592 64.446 33.0592C63.39 33.0592 62.55 32.8072 61.926 32.3032C61.302 31.7992 60.99 31.1332 60.99 30.3052C60.99 29.5012 61.278 28.8532 61.854 28.3612C62.442 27.8692 63.372 27.6232 64.644 27.6232H67.65V27.0472C67.65 26.2312 67.422 25.6132 66.966 25.1932C66.51 24.7612 65.844 24.5452 64.968 24.5452C64.368 24.5452 63.792 24.6472 63.24 24.8512C62.688 25.0432 62.214 25.3132 61.818 25.6612L61.242 24.7072C61.722 24.2992 62.298 23.9872 62.97 23.7712C63.642 23.5432 64.35 23.4292 65.094 23.4292ZM64.644 32.0512C65.364 32.0512 65.982 31.8892 66.498 31.5652C67.014 31.2292 67.398 30.7492 67.65 30.1252V28.5772H64.68C63.06 28.5772 62.25 29.1412 62.25 30.2692C62.25 30.8212 62.46 31.2592 62.88 31.5832C63.3 31.8952 63.888 32.0512 64.644 32.0512ZM73.6232 25.3552C73.9232 24.7192 74.3672 24.2392 74.9552 23.9152C75.5552 23.5912 76.2932 23.4292 77.1692 23.4292V24.6712L76.8632 24.6532C75.8672 24.6532 75.0872 24.9592 74.5232 25.5712C73.9592 26.1832 73.6772 27.0412 73.6772 28.1452V32.9692H72.3992V23.5012H73.6232V25.3552ZM87.6393 28.6312H79.7193C79.7913 29.6152 80.1693 30.4132 80.8533 31.0252C81.5373 31.6252 82.4013 31.9252 83.4453 31.9252C84.0333 31.9252 84.5733 31.8232 85.0653 31.6192C85.5573 31.4032 85.9833 31.0912 86.3433 30.6832L87.0633 31.5112C86.6433 32.0152 86.1153 32.3992 85.4793 32.6632C84.8553 32.9272 84.1653 33.0592 83.4093 33.0592C82.4373 33.0592 81.5733 32.8552 80.8173 32.4472C80.0733 32.0272 79.4913 31.4512 79.0713 30.7192C78.6513 29.9872 78.4413 29.1592 78.4413 28.2352C78.4413 27.3112 78.6393 26.4832 79.0353 25.7512C79.4433 25.0192 79.9953 24.4492 80.6913 24.0412C81.3993 23.6332 82.1913 23.4292 83.0673 23.4292C83.9433 23.4292 84.7293 23.6332 85.4253 24.0412C86.1213 24.4492 86.6673 25.0192 87.0633 25.7512C87.4593 26.4712 87.6573 27.2992 87.6573 28.2352L87.6393 28.6312ZM83.0673 24.5272C82.1553 24.5272 81.3873 24.8212 80.7633 25.4092C80.1513 25.9852 79.8033 26.7412 79.7193 27.6772H86.4333C86.3493 26.7412 85.9953 25.9852 85.3713 25.4092C84.7593 24.8212 83.9913 24.5272 83.0673 24.5272ZM95.0826 23.4292C96.2706 23.4292 97.2126 23.7772 97.9086 24.4732C98.6166 25.1572 98.9706 26.1592 98.9706 27.4792V32.9692H97.6926V27.6052C97.6926 26.6212 97.4466 25.8712 96.9546 25.3552C96.4626 24.8392 95.7606 24.5812 94.8486 24.5812C93.8286 24.5812 93.0186 24.8872 92.4186 25.4992C91.8306 26.0992 91.5366 26.9332 91.5366 28.0012V32.9692H90.2586V23.5012H91.4826V25.2472C91.8306 24.6712 92.3106 24.2272 92.9226 23.9152C93.5466 23.5912 94.2666 23.4292 95.0826 23.4292ZM111.115 19.6132V32.9692H109.891V31.0972C109.507 31.7332 108.997 32.2192 108.361 32.5552C107.737 32.8912 107.029 33.0592 106.237 33.0592C105.349 33.0592 104.545 32.8552 103.825 32.4472C103.105 32.0392 102.541 31.4692 102.133 30.7372C101.725 30.0052 101.521 29.1712 101.521 28.2352C101.521 27.2992 101.725 26.4652 102.133 25.7332C102.541 25.0012 103.105 24.4372 103.825 24.0412C104.545 23.6332 105.349 23.4292 106.237 23.4292C107.005 23.4292 107.695 23.5912 108.307 23.9152C108.931 24.2272 109.441 24.6892 109.837 25.3012V19.6132H111.115ZM106.345 31.9252C107.005 31.9252 107.599 31.7752 108.127 31.4752C108.667 31.1632 109.087 30.7252 109.387 30.1612C109.699 29.5972 109.855 28.9552 109.855 28.2352C109.855 27.5152 109.699 26.8732 109.387 26.3092C109.087 25.7452 108.667 25.3132 108.127 25.0132C107.599 24.7012 107.005 24.5452 106.345 24.5452C105.673 24.5452 105.067 24.7012 104.527 25.0132C103.999 25.3132 103.579 25.7452 103.267 26.3092C102.967 26.8732 102.817 27.5152 102.817 28.2352C102.817 28.9552 102.967 29.5972 103.267 30.1612C103.579 30.7252 103.999 31.1632 104.527 31.4752C105.067 31.7752 105.673 31.9252 106.345 31.9252ZM117.987 23.4292C119.223 23.4292 120.171 23.7412 120.831 24.3652C121.491 24.9772 121.821 25.8892 121.821 27.1012V32.9692H120.597V31.4932C120.309 31.9852 119.883 32.3692 119.319 32.6452C118.767 32.9212 118.107 33.0592 117.339 33.0592C116.283 33.0592 115.443 32.8072 114.819 32.3032C114.195 31.7992 113.883 31.1332 113.883 30.3052C113.883 29.5012 114.171 28.8532 114.747 28.3612C115.335 27.8692 116.265 27.6232 117.537 27.6232H120.543V27.0472C120.543 26.2312 120.315 25.6132 119.859 25.1932C119.403 24.7612 118.737 24.5452 117.861 24.5452C117.261 24.5452 116.685 24.6472 116.133 24.8512C115.581 25.0432 115.107 25.3132 114.711 25.6612L114.135 24.7072C114.615 24.2992 115.191 23.9872 115.863 23.7712C116.535 23.5432 117.243 23.4292 117.987 23.4292ZM117.537 32.0512C118.257 32.0512 118.875 31.8892 119.391 31.5652C119.907 31.2292 120.291 30.7492 120.543 30.1252V28.5772H117.573C115.953 28.5772 115.143 29.1412 115.143 30.2692C115.143 30.8212 115.353 31.2592 115.773 31.5832C116.193 31.8952 116.781 32.0512 117.537 32.0512ZM128.802 28.2172L126.57 30.2692V32.9692H125.292V19.6132H126.57V28.6672L132.222 23.5012H133.806L129.756 27.3712L134.184 32.9692H132.618L128.802 28.2172ZM143.566 23.5012L139.354 32.9692H138.04L133.846 23.5012H135.178L138.724 31.5652L142.306 23.5012H143.566ZM148.397 23.4292C149.633 23.4292 150.581 23.7412 151.241 24.3652C151.901 24.9772 152.231 25.8892 152.231 27.1012V32.9692H151.007V31.4932C150.719 31.9852 150.293 32.3692 149.729 32.6452C149.177 32.9212 148.517 33.0592 147.749 33.0592C146.693 33.0592 145.853 32.8072 145.229 32.3032C144.605 31.7992 144.293 31.1332 144.293 30.3052C144.293 29.5012 144.581 28.8532 145.157 28.3612C145.745 27.8692 146.675 27.6232 147.947 27.6232H150.953V27.0472C150.953 26.2312 150.725 25.6132 150.269 25.1932C149.813 24.7612 149.147 24.5452 148.271 24.5452C147.671 24.5452 147.095 24.6472 146.543 24.8512C145.991 25.0432 145.517 25.3132 145.121 25.6612L144.545 24.7072C145.025 24.2992 145.601 23.9872 146.273 23.7712C146.945 23.5432 147.653 23.4292 148.397 23.4292ZM147.947 32.0512C148.667 32.0512 149.285 31.8892 149.801 31.5652C150.317 31.2292 150.701 30.7492 150.953 30.1252V28.5772H147.983C146.363 28.5772 145.553 29.1412 145.553 30.2692C145.553 30.8212 145.763 31.2592 146.183 31.5832C146.603 31.8952 147.191 32.0512 147.947 32.0512ZM156.926 25.3552C157.226 24.7192 157.67 24.2392 158.258 23.9152C158.858 23.5912 159.596 23.4292 160.472 23.4292V24.6712L160.166 24.6532C159.17 24.6532 158.39 24.9592 157.826 25.5712C157.262 26.1832 156.98 27.0412 156.98 28.1452V32.9692H155.702V23.5012H156.926V25.3552ZM168.176 32.3932C167.936 32.6092 167.636 32.7772 167.276 32.8972C166.928 33.0052 166.562 33.0592 166.178 33.0592C165.29 33.0592 164.606 32.8192 164.126 32.3392C163.646 31.8592 163.406 31.1812 163.406 30.3052V24.5812H161.714V23.5012H163.406V21.4312H164.684V23.5012H167.564V24.5812H164.684V30.2332C164.684 30.7972 164.822 31.2292 165.098 31.5292C165.386 31.8172 165.794 31.9612 166.322 31.9612C166.586 31.9612 166.838 31.9192 167.078 31.8352C167.33 31.7512 167.546 31.6312 167.726 31.4752L168.176 32.3932ZM170.503 23.5012H171.781V32.9692H170.503V23.5012ZM171.151 21.4312C170.887 21.4312 170.665 21.3412 170.485 21.1612C170.305 20.9812 170.215 20.7652 170.215 20.5132C170.215 20.2732 170.305 20.0632 170.485 19.8832C170.665 19.7032 170.887 19.6132 171.151 19.6132C171.415 19.6132 171.637 19.7032 171.817 19.8832C171.997 20.0512 172.087 20.2552 172.087 20.4952C172.087 20.7592 171.997 20.9812 171.817 21.1612C171.637 21.3412 171.415 21.4312 171.151 21.4312ZM176.561 25.3552C176.861 24.7192 177.305 24.2392 177.893 23.9152C178.493 23.5912 179.231 23.4292 180.107 23.4292V24.6712L179.801 24.6532C178.805 24.6532 178.025 24.9592 177.461 25.5712C176.897 26.1832 176.615 27.0412 176.615 28.1452V32.9692H175.337V23.5012H176.561V25.3552ZM185.045 25.5352C186.869 25.5352 188.195 25.8652 189.023 26.5252C189.863 27.1732 190.283 28.0852 190.283 29.2612C190.283 29.9932 190.109 30.6472 189.761 31.2232C189.425 31.7992 188.915 32.2552 188.231 32.5912C187.547 32.9152 186.707 33.0772 185.711 33.0772C184.811 33.0772 183.953 32.9332 183.137 32.6452C182.333 32.3452 181.685 31.9492 181.193 31.4572L181.823 30.4312C182.243 30.8632 182.795 31.2172 183.479 31.4932C184.163 31.7572 184.901 31.8892 185.693 31.8892C186.737 31.8892 187.541 31.6552 188.105 31.1872C188.681 30.7192 188.969 30.0952 188.969 29.3152C188.969 28.4512 188.645 27.7972 187.997 27.3532C187.361 26.9092 186.281 26.6872 184.757 26.6872H182.075L182.723 20.3692H189.617V21.5212H183.857L183.425 25.5352H185.045ZM195.852 20.2612C197.52 20.2612 198.798 20.8132 199.686 21.9172C200.574 23.0092 201.018 24.5572 201.018 26.5612C201.018 27.9652 200.778 29.1532 200.298 30.1252C199.818 31.0972 199.146 31.8352 198.282 32.3392C197.418 32.8312 196.41 33.0772 195.258 33.0772C194.01 33.0772 193.014 32.8492 192.27 32.3932L192.792 31.3492C193.392 31.7452 194.208 31.9432 195.24 31.9432C196.632 31.9432 197.724 31.5052 198.516 30.6292C199.308 29.7412 199.704 28.4572 199.704 26.7772C199.704 26.4652 199.686 26.1232 199.65 25.7512C199.338 26.4352 198.84 26.9692 198.156 27.3532C197.472 27.7252 196.686 27.9112 195.798 27.9112C194.97 27.9112 194.232 27.7552 193.584 27.4432C192.948 27.1312 192.45 26.6932 192.09 26.1292C191.73 25.5532 191.55 24.8872 191.55 24.1312C191.55 23.3632 191.736 22.6852 192.108 22.0972C192.48 21.5092 192.99 21.0592 193.638 20.7472C194.298 20.4232 195.036 20.2612 195.852 20.2612ZM195.996 26.8132C196.632 26.8132 197.19 26.6932 197.67 26.4532C198.162 26.2132 198.546 25.8832 198.822 25.4632C199.098 25.0432 199.236 24.5752 199.236 24.0592C199.236 23.5792 199.104 23.1352 198.84 22.7272C198.588 22.3192 198.21 21.9892 197.706 21.7372C197.202 21.4852 196.602 21.3592 195.906 21.3592C194.994 21.3592 194.25 21.6112 193.674 22.1152C193.11 22.6072 192.828 23.2672 192.828 24.0952C192.828 24.9232 193.11 25.5832 193.674 26.0752C194.25 26.5672 195.024 26.8132 195.996 26.8132Z" fill="#111111"/>
<circle cx="20" cy="81.9692" r="20" fill="#2B7AF1"/>
<path d="M29.806 87.0846C29.806 87.0015 29.723 87.0015 29.723 86.9185C29.3909 86.2543 28.6437 85.4241 27.6474 84.5108C27.1493 84.0957 26.9002 83.7636 26.7342 83.5976C26.4851 83.2655 26.4851 83.0164 26.5681 82.6843C26.6512 82.4353 26.9832 82.0202 27.5644 81.2729C27.8965 80.8578 28.0625 80.6088 28.3116 80.3597C29.5569 78.6992 30.1381 77.6199 29.972 77.1218L29.889 77.0388C29.806 76.9558 29.723 76.8727 29.5569 76.8727C29.3909 76.7897 29.1418 76.7897 28.8928 76.8727H25.7379C25.6549 76.8727 25.6549 76.8727 25.4888 76.8727C25.4058 76.8727 25.3228 76.8727 25.3228 76.8727H25.2398H25.1567L25.0737 76.9558C24.9907 77.0388 24.9907 77.0388 24.9907 77.1218C24.6586 78.0351 24.2435 78.7823 23.8284 79.6125C23.5793 80.0276 23.3302 80.4427 23.0812 80.7748C22.8321 81.1069 22.666 81.356 22.5 81.522C22.3339 81.6881 22.1679 81.7711 22.0849 81.9371C22.0018 82.0202 21.8358 82.1032 21.8358 82.0202C21.7528 82.0202 21.6698 82.0202 21.6698 81.9371C21.5867 81.8541 21.5037 81.7711 21.4207 81.6881C21.3377 81.605 21.3377 81.439 21.2546 81.2729C21.2546 81.1069 21.2546 80.9409 21.2546 80.8578C21.2546 80.7748 21.2546 80.5257 21.2546 80.3597C21.2546 80.1106 21.2546 79.9446 21.2546 79.8616C21.2546 79.6125 21.2546 79.2804 21.2546 78.9483C21.2546 78.6162 21.2546 78.3671 21.2546 78.2011C21.2546 78.0351 21.2546 77.786 21.2546 77.6199C21.2546 77.3709 21.2546 77.2048 21.2546 77.1218C21.2546 77.0388 21.1716 76.8727 21.1716 76.7897C21.0886 76.7067 21.0056 76.6237 20.9226 76.5406C20.8395 76.4576 20.6735 76.4576 20.5905 76.3746C20.1754 76.2916 19.6772 76.2086 19.0961 76.2086C17.7677 76.2086 16.8544 76.2916 16.5223 76.4576C16.3563 76.5407 16.1903 76.6237 16.1072 76.7897C15.9412 76.9558 15.9412 77.0388 16.0242 77.0388C16.4393 77.1218 16.7714 77.2878 16.9375 77.5369L17.0205 77.703C17.1035 77.786 17.1035 77.952 17.1865 78.2011C17.2695 78.4502 17.2696 78.6992 17.2696 79.0313C17.2696 79.5295 17.2696 80.0276 17.2696 80.3597C17.2696 80.7748 17.1865 81.0239 17.1865 81.2729C17.1865 81.522 17.1035 81.6881 17.0205 81.7711C16.9375 81.9371 16.9375 82.0202 16.8544 82.0202C16.8544 82.0202 16.8544 82.1032 16.7714 82.1032C16.6884 82.1032 16.6054 82.1862 16.4393 82.1862C16.3563 82.1862 16.1903 82.1032 16.1072 82.0202C15.9412 81.9371 15.7751 81.7711 15.6921 81.605C15.5261 81.439 15.36 81.1899 15.194 80.8578C15.0279 80.5257 14.7789 80.1937 14.6128 79.6955L14.4468 79.3634C14.3638 79.1974 14.1977 78.8653 14.0317 78.4502C13.8656 78.0351 13.6996 77.703 13.5335 77.2879C13.4505 77.1218 13.3675 77.0388 13.2845 76.9558H13.2014C13.2014 76.9558 13.1184 76.8727 13.0354 76.8727C12.9524 76.8727 12.8693 76.7897 12.7863 76.7897H9.79749C9.4654 76.7897 9.29935 76.8727 9.21633 76.9558L9.1333 77.0388C9.1333 77.0388 9.1333 77.1218 9.1333 77.2048C9.1333 77.2879 9.13331 77.3709 9.21633 77.5369C9.63144 78.5332 10.1296 79.5295 10.6277 80.5257C11.1259 81.439 11.624 82.2692 11.9561 82.8504C12.3712 83.4316 12.7033 84.0127 13.1184 84.5108C13.5335 85.009 13.7826 85.3411 13.8656 85.5071C14.0317 85.6732 14.1147 85.7562 14.1977 85.8392L14.4468 86.0883C14.6128 86.2543 14.8619 86.5034 15.194 86.7525C15.5261 87.0015 15.9412 87.2506 16.3563 87.4997C16.7714 87.7487 17.2696 87.9148 17.7677 88.0808C18.3489 88.2469 18.847 88.3299 19.3451 88.2469H20.5905C20.8395 88.2469 21.0056 88.1639 21.1716 87.9978L21.2546 87.9148C21.2546 87.8318 21.3377 87.8318 21.3377 87.7487C21.3377 87.6657 21.3377 87.5827 21.3377 87.4167C21.3377 87.0846 21.3377 86.8355 21.4207 86.5864C21.5037 86.3374 21.5037 86.1713 21.5868 86.0053C21.6698 85.8392 21.7528 85.7562 21.8358 85.6732C21.9188 85.5901 22.0019 85.5071 22.0019 85.5071H22.0849C22.2509 85.4241 22.5 85.5071 22.666 85.6732C22.9151 85.8392 23.1642 86.0883 23.3302 86.3374C23.4963 86.5864 23.7453 86.8355 24.0774 87.1676C24.4095 87.4997 24.6586 87.7487 24.8246 87.8318L25.0737 87.9978C25.2397 88.0808 25.4058 88.1639 25.6549 88.2469C25.9039 88.3299 26.07 88.3299 26.236 88.3299L29.0588 88.2469C29.3079 88.2469 29.5569 88.1639 29.723 88.0808C29.889 87.9978 29.972 87.9148 29.972 87.7487C29.972 87.6657 29.972 87.4997 29.972 87.4167C29.806 87.2506 29.806 87.1676 29.806 87.0846Z" fill="white"/>
<path d="M65.094 78.4292C66.33 78.4292 67.278 78.7412 67.938 79.3652C68.598 79.9772 68.928 80.8892 68.928 82.1012V87.9692H67.704V86.4932C67.416 86.9852 66.99 87.3692 66.426 87.6452C65.874 87.9212 65.214 88.0592 64.446 88.0592C63.39 88.0592 62.55 87.8072 61.926 87.3032C61.302 86.7992 60.99 86.1332 60.99 85.3052C60.99 84.5012 61.278 83.8532 61.854 83.3612C62.442 82.8692 63.372 82.6232 64.644 82.6232H67.65V82.0472C67.65 81.2312 67.422 80.6132 66.966 80.1932C66.51 79.7612 65.844 79.5452 64.968 79.5452C64.368 79.5452 63.792 79.6472 63.24 79.8512C62.688 80.0432 62.214 80.3132 61.818 80.6612L61.242 79.7072C61.722 79.2992 62.298 78.9872 62.97 78.7712C63.642 78.5432 64.35 78.4292 65.094 78.4292ZM64.644 87.0512C65.364 87.0512 65.982 86.8892 66.498 86.5652C67.014 86.2292 67.398 85.7492 67.65 85.1252V83.5772H64.68C63.06 83.5772 62.25 84.1412 62.25 85.2692C62.25 85.8212 62.46 86.2592 62.88 86.5832C63.3 86.8952 63.888 87.0512 64.644 87.0512ZM73.6232 80.3552C73.9232 79.7192 74.3672 79.2392 74.9552 78.9152C75.5552 78.5912 76.2932 78.4292 77.1692 78.4292V79.6712L76.8632 79.6532C75.8672 79.6532 75.0872 79.9592 74.5232 80.5712C73.9592 81.1832 73.6772 82.0412 73.6772 83.1452V87.9692H72.3992V78.5012H73.6232V80.3552ZM87.6393 83.6312H79.7193C79.7913 84.6152 80.1693 85.4132 80.8533 86.0252C81.5373 86.6252 82.4013 86.9252 83.4453 86.9252C84.0333 86.9252 84.5733 86.8232 85.0653 86.6192C85.5573 86.4032 85.9833 86.0912 86.3433 85.6832L87.0633 86.5112C86.6433 87.0152 86.1153 87.3992 85.4793 87.6632C84.8553 87.9272 84.1653 88.0592 83.4093 88.0592C82.4373 88.0592 81.5733 87.8552 80.8173 87.4472C80.0733 87.0272 79.4913 86.4512 79.0713 85.7192C78.6513 84.9872 78.4413 84.1592 78.4413 83.2352C78.4413 82.3112 78.6393 81.4832 79.0353 80.7512C79.4433 80.0192 79.9953 79.4492 80.6913 79.0412C81.3993 78.6332 82.1913 78.4292 83.0673 78.4292C83.9433 78.4292 84.7293 78.6332 85.4253 79.0412C86.1213 79.4492 86.6673 80.0192 87.0633 80.7512C87.4593 81.4712 87.6573 82.2992 87.6573 83.2352L87.6393 83.6312ZM83.0673 79.5272C82.1553 79.5272 81.3873 79.8212 80.7633 80.4092C80.1513 80.9852 79.8033 81.7412 79.7193 82.6772H86.4333C86.3493 81.7412 85.9953 80.9852 85.3713 80.4092C84.7593 79.8212 83.9913 79.5272 83.0673 79.5272ZM95.0826 78.4292C96.2706 78.4292 97.2126 78.7772 97.9086 79.4732C98.6166 80.1572 98.9706 81.1592 98.9706 82.4792V87.9692H97.6926V82.6052C97.6926 81.6212 97.4466 80.8712 96.9546 80.3552C96.4626 79.8392 95.7606 79.5812 94.8486 79.5812C93.8286 79.5812 93.0186 79.8872 92.4186 80.4992C91.8306 81.0992 91.5366 81.9332 91.5366 83.0012V87.9692H90.2586V78.5012H91.4826V80.2472C91.8306 79.6712 92.3106 79.2272 92.9226 78.9152C93.5466 78.5912 94.2666 78.4292 95.0826 78.4292ZM111.115 74.6132V87.9692H109.891V86.0972C109.507 86.7332 108.997 87.2192 108.361 87.5552C107.737 87.8912 107.029 88.0592 106.237 88.0592C105.349 88.0592 104.545 87.8552 103.825 87.4472C103.105 87.0392 102.541 86.4692 102.133 85.7372C101.725 85.0052 101.521 84.1712 101.521 83.2352C101.521 82.2992 101.725 81.4652 102.133 80.7332C102.541 80.0012 103.105 79.4372 103.825 79.0412C104.545 78.6332 105.349 78.4292 106.237 78.4292C107.005 78.4292 107.695 78.5912 108.307 78.9152C108.931 79.2272 109.441 79.6892 109.837 80.3012V74.6132H111.115ZM106.345 86.9252C107.005 86.9252 107.599 86.7752 108.127 86.4752C108.667 86.1632 109.087 85.7252 109.387 85.1612C109.699 84.5972 109.855 83.9552 109.855 83.2352C109.855 82.5152 109.699 81.8732 109.387 81.3092C109.087 80.7452 108.667 80.3132 108.127 80.0132C107.599 79.7012 107.005 79.5452 106.345 79.5452C105.673 79.5452 105.067 79.7012 104.527 80.0132C103.999 80.3132 103.579 80.7452 103.267 81.3092C102.967 81.8732 102.817 82.5152 102.817 83.2352C102.817 83.9552 102.967 84.5972 103.267 85.1612C103.579 85.7252 103.999 86.1632 104.527 86.4752C105.067 86.7752 105.673 86.9252 106.345 86.9252ZM117.987 78.4292C119.223 78.4292 120.171 78.7412 120.831 79.3652C121.491 79.9772 121.821 80.8892 121.821 82.1012V87.9692H120.597V86.4932C120.309 86.9852 119.883 87.3692 119.319 87.6452C118.767 87.9212 118.107 88.0592 117.339 88.0592C116.283 88.0592 115.443 87.8072 114.819 87.3032C114.195 86.7992 113.883 86.1332 113.883 85.3052C113.883 84.5012 114.171 83.8532 114.747 83.3612C115.335 82.8692 116.265 82.6232 117.537 82.6232H120.543V82.0472C120.543 81.2312 120.315 80.6132 119.859 80.1932C119.403 79.7612 118.737 79.5452 117.861 79.5452C117.261 79.5452 116.685 79.6472 116.133 79.8512C115.581 80.0432 115.107 80.3132 114.711 80.6612L114.135 79.7072C114.615 79.2992 115.191 78.9872 115.863 78.7712C116.535 78.5432 117.243 78.4292 117.987 78.4292ZM117.537 87.0512C118.257 87.0512 118.875 86.8892 119.391 86.5652C119.907 86.2292 120.291 85.7492 120.543 85.1252V83.5772H117.573C115.953 83.5772 115.143 84.1412 115.143 85.2692C115.143 85.8212 115.353 86.2592 115.773 86.5832C116.193 86.8952 116.781 87.0512 117.537 87.0512ZM128.802 83.2172L126.57 85.2692V87.9692H125.292V74.6132H126.57V83.6672L132.222 78.5012H133.806L129.756 82.3712L134.184 87.9692H132.618L128.802 83.2172ZM143.566 78.5012L139.354 87.9692H138.04L133.846 78.5012H135.178L138.724 86.5652L142.306 78.5012H143.566ZM148.397 78.4292C149.633 78.4292 150.581 78.7412 151.241 79.3652C151.901 79.9772 152.231 80.8892 152.231 82.1012V87.9692H151.007V86.4932C150.719 86.9852 150.293 87.3692 149.729 87.6452C149.177 87.9212 148.517 88.0592 147.749 88.0592C146.693 88.0592 145.853 87.8072 145.229 87.3032C144.605 86.7992 144.293 86.1332 144.293 85.3052C144.293 84.5012 144.581 83.8532 145.157 83.3612C145.745 82.8692 146.675 82.6232 147.947 82.6232H150.953V82.0472C150.953 81.2312 150.725 80.6132 150.269 80.1932C149.813 79.7612 149.147 79.5452 148.271 79.5452C147.671 79.5452 147.095 79.6472 146.543 79.8512C145.991 80.0432 145.517 80.3132 145.121 80.6612L144.545 79.7072C145.025 79.2992 145.601 78.9872 146.273 78.7712C146.945 78.5432 147.653 78.4292 148.397 78.4292ZM147.947 87.0512C148.667 87.0512 149.285 86.8892 149.801 86.5652C150.317 86.2292 150.701 85.7492 150.953 85.1252V83.5772H147.983C146.363 83.5772 145.553 84.1412 145.553 85.2692C145.553 85.8212 145.763 86.2592 146.183 86.5832C146.603 86.8952 147.191 87.0512 147.947 87.0512ZM156.926 80.3552C157.226 79.7192 157.67 79.2392 158.258 78.9152C158.858 78.5912 159.596 78.4292 160.472 78.4292V79.6712L160.166 79.6532C159.17 79.6532 158.39 79.9592 157.826 80.5712C157.262 81.1832 156.98 82.0412 156.98 83.1452V87.9692H155.702V78.5012H156.926V80.3552ZM168.176 87.3932C167.936 87.6092 167.636 87.7772 167.276 87.8972C166.928 88.0052 166.562 88.0592 166.178 88.0592C165.29 88.0592 164.606 87.8192 164.126 87.3392C163.646 86.8592 163.406 86.1812 163.406 85.3052V79.5812H161.714V78.5012H163.406V76.4312H164.684V78.5012H167.564V79.5812H164.684V85.2332C164.684 85.7972 164.822 86.2292 165.098 86.5292C165.386 86.8172 165.794 86.9612 166.322 86.9612C166.586 86.9612 166.838 86.9192 167.078 86.8352C167.33 86.7512 167.546 86.6312 167.726 86.4752L168.176 87.3932ZM170.503 78.5012H171.781V87.9692H170.503V78.5012ZM171.151 76.4312C170.887 76.4312 170.665 76.3412 170.485 76.1612C170.305 75.9812 170.215 75.7652 170.215 75.5132C170.215 75.2732 170.305 75.0632 170.485 74.8832C170.665 74.7032 170.887 74.6132 171.151 74.6132C171.415 74.6132 171.637 74.7032 171.817 74.8832C171.997 75.0512 172.087 75.2552 172.087 75.4952C172.087 75.7592 171.997 75.9812 171.817 76.1612C171.637 76.3412 171.415 76.4312 171.151 76.4312ZM176.561 80.3552C176.861 79.7192 177.305 79.2392 177.893 78.9152C178.493 78.5912 179.231 78.4292 180.107 78.4292V79.6712L179.801 79.6532C178.805 79.6532 178.025 79.9592 177.461 80.5712C176.897 81.1832 176.615 82.0412 176.615 83.1452V87.9692H175.337V78.5012H176.561V80.3552ZM185.045 80.5352C186.869 80.5352 188.195 80.8652 189.023 81.5252C189.863 82.1732 190.283 83.0852 190.283 84.2612C190.283 84.9932 190.109 85.6472 189.761 86.2232C189.425 86.7992 188.915 87.2552 188.231 87.5912C187.547 87.9152 186.707 88.0772 185.711 88.0772C184.811 88.0772 183.953 87.9332 183.137 87.6452C182.333 87.3452 181.685 86.9492 181.193 86.4572L181.823 85.4312C182.243 85.8632 182.795 86.2172 183.479 86.4932C184.163 86.7572 184.901 86.8892 185.693 86.8892C186.737 86.8892 187.541 86.6552 188.105 86.1872C188.681 85.7192 188.969 85.0952 188.969 84.3152C188.969 83.4512 188.645 82.7972 187.997 82.3532C187.361 81.9092 186.281 81.6872 184.757 81.6872H182.075L182.723 75.3692H189.617V76.5212H183.857L183.425 80.5352H185.045ZM195.852 75.2612C197.52 75.2612 198.798 75.8132 199.686 76.9172C200.574 78.0092 201.018 79.5572 201.018 81.5612C201.018 82.9652 200.778 84.1532 200.298 85.1252C199.818 86.0972 199.146 86.8352 198.282 87.3392C197.418 87.8312 196.41 88.0772 195.258 88.0772C194.01 88.0772 193.014 87.8492 192.27 87.3932L192.792 86.3492C193.392 86.7452 194.208 86.9432 195.24 86.9432C196.632 86.9432 197.724 86.5052 198.516 85.6292C199.308 84.7412 199.704 83.4572 199.704 81.7772C199.704 81.4652 199.686 81.1232 199.65 80.7512C199.338 81.4352 198.84 81.9692 198.156 82.3532C197.472 82.7252 196.686 82.9112 195.798 82.9112C194.97 82.9112 194.232 82.7552 193.584 82.4432C192.948 82.1312 192.45 81.6932 192.09 81.1292C191.73 80.5532 191.55 79.8872 191.55 79.1312C191.55 78.3632 191.736 77.6852 192.108 77.0972C192.48 76.5092 192.99 76.0592 193.638 75.7472C194.298 75.4232 195.036 75.2612 195.852 75.2612ZM195.996 81.8132C196.632 81.8132 197.19 81.6932 197.67 81.4532C198.162 81.2132 198.546 80.8832 198.822 80.4632C199.098 80.0432 199.236 79.5752 199.236 79.0592C199.236 78.5792 199.104 78.1352 198.84 77.7272C198.588 77.3192 198.21 76.9892 197.706 76.7372C197.202 76.4852 196.602 76.3592 195.906 76.3592C194.994 76.3592 194.25 76.6112 193.674 77.1152C193.11 77.6072 192.828 78.2672 192.828 79.0952C192.828 79.9232 193.11 80.5832 193.674 81.0752C194.25 81.5672 195.024 81.8132 195.996 81.8132Z" fill="#111111"/>
<g filter="url(#filter0_d_1_2097)">
<rect x="325" y="10" width="157" height="33" rx="16.5" fill="url(#paint0_linear_1_2097)"/>
<path d="M364.634 22.2V32H362.842V23.74H357.76V32H355.968V22.2H364.634ZM370.533 32.098C369.777 32.098 369.096 31.9347 368.489 31.608C367.883 31.2813 367.407 30.8287 367.061 30.25C366.725 29.662 366.557 28.9993 366.557 28.262C366.557 27.5247 366.725 26.8667 367.061 26.288C367.407 25.7093 367.883 25.2567 368.489 24.93C369.096 24.6033 369.777 24.44 370.533 24.44C371.299 24.44 371.985 24.6033 372.591 24.93C373.198 25.2567 373.669 25.7093 374.005 26.288C374.351 26.8667 374.523 27.5247 374.523 28.262C374.523 28.9993 374.351 29.662 374.005 30.25C373.669 30.8287 373.198 31.2813 372.591 31.608C371.985 31.9347 371.299 32.098 370.533 32.098ZM370.533 30.6C371.177 30.6 371.709 30.3853 372.129 29.956C372.549 29.5267 372.759 28.962 372.759 28.262C372.759 27.562 372.549 26.9973 372.129 26.568C371.709 26.1387 371.177 25.924 370.533 25.924C369.889 25.924 369.357 26.1387 368.937 26.568C368.527 26.9973 368.321 27.562 368.321 28.262C368.321 28.962 368.527 29.5267 368.937 29.956C369.357 30.3853 369.889 30.6 370.533 30.6ZM384.15 30.516V33.666H382.512V32H376.744V33.666H375.12V30.516H375.47C375.946 30.4973 376.268 30.194 376.436 29.606C376.613 29.0087 376.73 28.1687 376.786 27.086L376.884 24.524H383.044V30.516H384.15ZM378.382 27.212C378.345 28.0707 378.275 28.7707 378.172 29.312C378.069 29.8533 377.883 30.2547 377.612 30.516H381.294V26.008H378.424L378.382 27.212ZM392.881 24.524V32H391.145V26.008H387.463V32H385.713V24.524H392.881ZM395.242 24.524H396.992V29.452L401.122 24.524H402.718V32H400.968V27.072L396.852 32H395.242V24.524ZM408.474 32.098C407.7 32.098 407.004 31.9347 406.388 31.608C405.772 31.2813 405.292 30.8287 404.946 30.25C404.601 29.662 404.428 28.9993 404.428 28.262C404.428 27.5247 404.601 26.8667 404.946 26.288C405.292 25.7093 405.768 25.2567 406.374 24.93C406.99 24.6033 407.69 24.44 408.474 24.44C409.212 24.44 409.856 24.5893 410.406 24.888C410.966 25.1867 411.386 25.616 411.666 26.176L410.322 26.96C410.108 26.6147 409.837 26.358 409.51 26.19C409.193 26.0127 408.843 25.924 408.46 25.924C407.807 25.924 407.266 26.1387 406.836 26.568C406.407 26.988 406.192 27.5527 406.192 28.262C406.192 28.9713 406.402 29.5407 406.822 29.97C407.252 30.39 407.798 30.6 408.46 30.6C408.843 30.6 409.193 30.516 409.51 30.348C409.837 30.1707 410.108 29.9093 410.322 29.564L411.666 30.348C411.377 30.908 410.952 31.342 410.392 31.65C409.842 31.9487 409.202 32.098 408.474 32.098ZM415.993 24.44C417.095 24.44 417.935 24.706 418.513 25.238C419.101 25.7607 419.395 26.554 419.395 27.618V32H417.743V31.09C417.529 31.4167 417.221 31.6687 416.819 31.846C416.427 32.014 415.951 32.098 415.391 32.098C414.831 32.098 414.341 32.0047 413.921 31.818C413.501 31.622 413.175 31.356 412.941 31.02C412.717 30.6747 412.605 30.2873 412.605 29.858C412.605 29.186 412.853 28.6493 413.347 28.248C413.851 27.8373 414.64 27.632 415.713 27.632H417.645V27.52C417.645 26.9973 417.487 26.596 417.169 26.316C416.861 26.036 416.399 25.896 415.783 25.896C415.363 25.896 414.948 25.9613 414.537 26.092C414.136 26.2227 413.795 26.4047 413.515 26.638L412.829 25.364C413.221 25.0653 413.693 24.8367 414.243 24.678C414.794 24.5193 415.377 24.44 415.993 24.44ZM415.755 30.824C416.194 30.824 416.581 30.726 416.917 30.53C417.263 30.3247 417.505 30.0353 417.645 29.662V28.794H415.839C414.831 28.794 414.327 29.1253 414.327 29.788C414.327 30.1053 414.453 30.3573 414.705 30.544C414.957 30.7307 415.307 30.824 415.755 30.824ZM427.483 26.008H424.865V32H423.115V26.008H420.483V24.524H427.483V26.008ZM432.504 26.988C433.456 26.988 434.184 27.2027 434.688 27.632C435.202 28.0613 435.458 28.668 435.458 29.452C435.458 30.2733 435.178 30.908 434.618 31.356C434.058 31.804 433.27 32.0233 432.252 32.014L428.752 32V24.524H430.502V26.974L432.504 26.988ZM432.098 30.726C432.612 30.7353 433.004 30.628 433.274 30.404C433.545 30.18 433.68 29.8533 433.68 29.424C433.68 29.004 433.55 28.696 433.288 28.5C433.027 28.304 432.63 28.2013 432.098 28.192L430.502 28.178V30.712L432.098 30.726ZM440.398 32.098C439.624 32.098 438.928 31.9347 438.312 31.608C437.696 31.2813 437.216 30.8287 436.87 30.25C436.525 29.662 436.352 28.9993 436.352 28.262C436.352 27.5247 436.525 26.8667 436.87 26.288C437.216 25.7093 437.692 25.2567 438.298 24.93C438.914 24.6033 439.614 24.44 440.398 24.44C441.136 24.44 441.78 24.5893 442.33 24.888C442.89 25.1867 443.31 25.616 443.59 26.176L442.246 26.96C442.032 26.6147 441.761 26.358 441.434 26.19C441.117 26.0127 440.767 25.924 440.384 25.924C439.731 25.924 439.19 26.1387 438.76 26.568C438.331 26.988 438.116 27.5527 438.116 28.262C438.116 28.9713 438.326 29.5407 438.746 29.97C439.176 30.39 439.722 30.6 440.384 30.6C440.767 30.6 441.117 30.516 441.434 30.348C441.761 30.1707 442.032 29.9093 442.246 29.564L443.59 30.348C443.301 30.908 442.876 31.342 442.316 31.65C441.766 31.9487 441.126 32.098 440.398 32.098ZM451.24 24.524V32H449.672V29.746H447.698L446.172 32H444.296L446.06 29.508C445.519 29.3213 445.103 29.0367 444.814 28.654C444.534 28.262 444.394 27.7813 444.394 27.212C444.394 26.3533 444.697 25.6907 445.304 25.224C445.911 24.7573 446.746 24.524 447.81 24.524H451.24ZM447.866 25.994C446.737 25.994 446.172 26.4187 446.172 27.268C446.172 28.108 446.718 28.528 447.81 28.528H449.672V25.994H447.866Z" fill="white"/>
</g>
<g filter="url(#filter1_d_1_2097)">
<rect x="325" y="64.6147" width="157" height="33" rx="16.5" fill="url(#paint1_linear_1_2097)"/>
<path d="M364.634 76.8147V86.6147H362.842V78.3547H357.76V86.6147H355.968V76.8147H364.634ZM370.533 86.7127C369.777 86.7127 369.096 86.5494 368.489 86.2227C367.883 85.8961 367.407 85.4434 367.061 84.8647C366.725 84.2767 366.557 83.6141 366.557 82.8767C366.557 82.1394 366.725 81.4814 367.061 80.9027C367.407 80.3241 367.883 79.8714 368.489 79.5447C369.096 79.2181 369.777 79.0547 370.533 79.0547C371.299 79.0547 371.985 79.2181 372.591 79.5447C373.198 79.8714 373.669 80.3241 374.005 80.9027C374.351 81.4814 374.523 82.1394 374.523 82.8767C374.523 83.6141 374.351 84.2767 374.005 84.8647C373.669 85.4434 373.198 85.8961 372.591 86.2227C371.985 86.5494 371.299 86.7127 370.533 86.7127ZM370.533 85.2147C371.177 85.2147 371.709 85.0001 372.129 84.5707C372.549 84.1414 372.759 83.5767 372.759 82.8767C372.759 82.1767 372.549 81.6121 372.129 81.1827C371.709 80.7534 371.177 80.5387 370.533 80.5387C369.889 80.5387 369.357 80.7534 368.937 81.1827C368.527 81.6121 368.321 82.1767 368.321 82.8767C368.321 83.5767 368.527 84.1414 368.937 84.5707C369.357 85.0001 369.889 85.2147 370.533 85.2147ZM384.15 85.1307V88.2807H382.512V86.6147H376.744V88.2807H375.12V85.1307H375.47C375.946 85.1121 376.268 84.8087 376.436 84.2207C376.613 83.6234 376.73 82.7834 376.786 81.7007L376.884 79.1387H383.044V85.1307H384.15ZM378.382 81.8267C378.345 82.6854 378.275 83.3854 378.172 83.9267C378.069 84.4681 377.883 84.8694 377.612 85.1307H381.294V80.6227H378.424L378.382 81.8267ZM392.881 79.1387V86.6147H391.145V80.6227H387.463V86.6147H385.713V79.1387H392.881ZM395.242 79.1387H396.992V84.0667L401.122 79.1387H402.718V86.6147H400.968V81.6867L396.852 86.6147H395.242V79.1387ZM408.474 86.7127C407.7 86.7127 407.004 86.5494 406.388 86.2227C405.772 85.8961 405.292 85.4434 404.946 84.8647C404.601 84.2767 404.428 83.6141 404.428 82.8767C404.428 82.1394 404.601 81.4814 404.946 80.9027C405.292 80.3241 405.768 79.8714 406.374 79.5447C406.99 79.2181 407.69 79.0547 408.474 79.0547C409.212 79.0547 409.856 79.2041 410.406 79.5027C410.966 79.8014 411.386 80.2307 411.666 80.7907L410.322 81.5747C410.108 81.2294 409.837 80.9727 409.51 80.8047C409.193 80.6274 408.843 80.5387 408.46 80.5387C407.807 80.5387 407.266 80.7534 406.836 81.1827C406.407 81.6027 406.192 82.1674 406.192 82.8767C406.192 83.5861 406.402 84.1554 406.822 84.5847C407.252 85.0047 407.798 85.2147 408.46 85.2147C408.843 85.2147 409.193 85.1307 409.51 84.9627C409.837 84.7854 410.108 84.5241 410.322 84.1787L411.666 84.9627C411.377 85.5227 410.952 85.9567 410.392 86.2647C409.842 86.5634 409.202 86.7127 408.474 86.7127ZM415.993 79.0547C417.095 79.0547 417.935 79.3207 418.513 79.8527C419.101 80.3754 419.395 81.1687 419.395 82.2327V86.6147H417.743V85.7047C417.529 86.0314 417.221 86.2834 416.819 86.4607C416.427 86.6287 415.951 86.7127 415.391 86.7127C414.831 86.7127 414.341 86.6194 413.921 86.4327C413.501 86.2367 413.175 85.9707 412.941 85.6347C412.717 85.2894 412.605 84.9021 412.605 84.4727C412.605 83.8007 412.853 83.2641 413.347 82.8627C413.851 82.4521 414.64 82.2467 415.713 82.2467H417.645V82.1347C417.645 81.6121 417.487 81.2107 417.169 80.9307C416.861 80.6507 416.399 80.5107 415.783 80.5107C415.363 80.5107 414.948 80.5761 414.537 80.7067C414.136 80.8374 413.795 81.0194 413.515 81.2527L412.829 79.9787C413.221 79.6801 413.693 79.4514 414.243 79.2927C414.794 79.1341 415.377 79.0547 415.993 79.0547ZM415.755 85.4387C416.194 85.4387 416.581 85.3407 416.917 85.1447C417.263 84.9394 417.505 84.6501 417.645 84.2767V83.4087H415.839C414.831 83.4087 414.327 83.7401 414.327 84.4027C414.327 84.7201 414.453 84.9721 414.705 85.1587C414.957 85.3454 415.307 85.4387 415.755 85.4387ZM427.483 80.6227H424.865V86.6147H423.115V80.6227H420.483V79.1387H427.483V80.6227ZM432.504 81.6027C433.456 81.6027 434.184 81.8174 434.688 82.2467C435.202 82.6761 435.458 83.2827 435.458 84.0667C435.458 84.8881 435.178 85.5227 434.618 85.9707C434.058 86.4187 433.27 86.6381 432.252 86.6287L428.752 86.6147V79.1387H430.502V81.5887L432.504 81.6027ZM432.098 85.3407C432.612 85.3501 433.004 85.2427 433.274 85.0187C433.545 84.7947 433.68 84.4681 433.68 84.0387C433.68 83.6187 433.55 83.3107 433.288 83.1147C433.027 82.9187 432.63 82.8161 432.098 82.8067L430.502 82.7927V85.3267L432.098 85.3407ZM440.398 86.7127C439.624 86.7127 438.928 86.5494 438.312 86.2227C437.696 85.8961 437.216 85.4434 436.87 84.8647C436.525 84.2767 436.352 83.6141 436.352 82.8767C436.352 82.1394 436.525 81.4814 436.87 80.9027C437.216 80.3241 437.692 79.8714 438.298 79.5447C438.914 79.2181 439.614 79.0547 440.398 79.0547C441.136 79.0547 441.78 79.2041 442.33 79.5027C442.89 79.8014 443.31 80.2307 443.59 80.7907L442.246 81.5747C442.032 81.2294 441.761 80.9727 441.434 80.8047C441.117 80.6274 440.767 80.5387 440.384 80.5387C439.731 80.5387 439.19 80.7534 438.76 81.1827C438.331 81.6027 438.116 82.1674 438.116 82.8767C438.116 83.5861 438.326 84.1554 438.746 84.5847C439.176 85.0047 439.722 85.2147 440.384 85.2147C440.767 85.2147 441.117 85.1307 441.434 84.9627C441.761 84.7854 442.032 84.5241 442.246 84.1787L443.59 84.9627C443.301 85.5227 442.876 85.9567 442.316 86.2647C441.766 86.5634 441.126 86.7127 440.398 86.7127ZM451.24 79.1387V86.6147H449.672V84.3607H447.698L446.172 86.6147H444.296L446.06 84.1227C445.519 83.9361 445.103 83.6514 444.814 83.2687C444.534 82.8767 444.394 82.3961 444.394 81.8267C444.394 80.9681 444.697 80.3054 445.304 79.8387C445.911 79.3721 446.746 79.1387 447.81 79.1387H451.24ZM447.866 80.6087C446.737 80.6087 446.172 81.0334 446.172 81.8827C446.172 82.7227 446.718 83.1427 447.81 83.1427H449.672V80.6087H447.866Z" fill="white"/>
</g>
<defs>
<filter id="filter0_d_1_2097" x="305" y="0" width="197" height="73" filterUnits="userSpaceOnUse" color-interpolation-filters="sRGB">
<feFlood flood-opacity="0" result="BackgroundImageFix"/>
<feColorMatrix in="SourceAlpha" type="matrix" values="0 0 0 0 0 0 0 0 0 0 0 0 0 0 0 0 0 0 127 0" result="hardAlpha"/>
<feOffset dy="10"/>
<feGaussianBlur stdDeviation="10"/>
<feColorMatrix type="matrix" values="0 0 0 0 1 0 0 0 0 0.478431 0 0 0 0 0 0 0 0 0.2 0"/>
<feBlend mode="normal" in2="BackgroundImageFix" result="effect1_dropShadow_1_2097"/>
<feBlend mode="normal" in="SourceGraphic" in2="effect1_dropShadow_1_2097" result="shape"/>
</filter>
<filter id="filter1_d_1_2097" x="305" y="54.6147" width="197" height="73" filterUnits="userSpaceOnUse" color-interpolation-filters="sRGB">
<feFlood flood-opacity="0" result="BackgroundImageFix"/>
<feColorMatrix in="SourceAlpha" type="matrix" values="0 0 0 0 0 0 0 0 0 0 0 0 0 0 0 0 0 0 127 0" result="hardAlpha"/>
<feOffset dy="10"/>
<feGaussianBlur stdDeviation="10"/>
<feColorMatrix type="matrix" values="0 0 0 0 1 0 0 0 0 0.478431 0 0 0 0 0 0 0 0 0.2 0"/>
<feBlend mode="normal" in2="BackgroundImageFix" result="effect1_dropShadow_1_2097"/>
<feBlend mode="normal" in="SourceGraphic" in2="effect1_dropShadow_1_2097" result="shape"/>
</filter>
<linearGradient id="paint0_linear_1_2097" x1="325" y1="26.5" x2="481.974" y2="23.4863" gradientUnits="userSpaceOnUse">
<stop stop-color="#FF7A00"/>
<stop offset="1" stop-color="#FFB039"/>
</linearGradient>
<linearGradient id="paint1_linear_1_2097" x1="325" y1="81.1147" x2="481.974" y2="78.1011" gradientUnits="userSpaceOnUse">
<stop stop-color="#FF7A00"/>
<stop offset="1" stop-color="#FFB039"/>
</linearGradient>
</defs>
</svg>
