<svg width="191" height="40" viewBox="0 0 191 40" fill="none" xmlns="http://www.w3.org/2000/svg">
<path d="M58.08 20.88H55.104V23.792H54.096V20.88H51.12V19.936H54.096V17.008H55.104V19.936H58.08V20.88ZM67.7829 14.8V15.616L63.0949 26H61.8469L66.4549 15.824H60.6949V17.92H59.5589V14.8H67.7829ZM76.1763 29.104C75.5789 28.1227 75.1203 26.9973 74.8003 25.728C74.4803 24.448 74.3203 23.0773 74.3203 21.616C74.3203 20.1547 74.4803 18.784 74.8003 17.504C75.1203 16.2133 75.5789 15.088 76.1763 14.128H77.2643C76.6349 15.2053 76.1709 16.3627 75.8723 17.6C75.5843 18.8373 75.4403 20.176 75.4403 21.616C75.4403 23.056 75.5843 24.3947 75.8723 25.632C76.1709 26.8693 76.6349 28.0267 77.2643 29.104H76.1763ZM82.2419 14.704C83.7245 14.704 84.8605 15.1947 85.6499 16.176C86.4392 17.1467 86.8339 18.5227 86.8339 20.304C86.8339 21.552 86.6205 22.608 86.1939 23.472C85.7672 24.336 85.1699 24.992 84.4019 25.44C83.6339 25.8773 82.7379 26.096 81.7139 26.096C80.6045 26.096 79.7192 25.8933 79.0579 25.488L79.5219 24.56C80.0552 24.912 80.7805 25.088 81.6979 25.088C82.9352 25.088 83.9059 24.6987 84.6099 23.92C85.3139 23.1307 85.6659 21.9893 85.6659 20.496C85.6659 20.2187 85.6499 19.9147 85.6179 19.584C85.3405 20.192 84.8979 20.6667 84.2899 21.008C83.6819 21.3387 82.9832 21.504 82.1939 21.504C81.4579 21.504 80.8019 21.3653 80.2259 21.088C79.6605 20.8107 79.2179 20.4213 78.8979 19.92C78.5779 19.408 78.4179 18.816 78.4179 18.144C78.4179 17.4613 78.5832 16.8587 78.9139 16.336C79.2445 15.8133 79.6979 15.4133 80.2739 15.136C80.8605 14.848 81.5165 14.704 82.2419 14.704ZM82.3699 20.528C82.9352 20.528 83.4312 20.4213 83.8579 20.208C84.2952 19.9947 84.6365 19.7013 84.8819 19.328C85.1272 18.9547 85.2499 18.5387 85.2499 18.08C85.2499 17.6533 85.1325 17.2587 84.8979 16.896C84.6739 16.5333 84.3379 16.24 83.8899 16.016C83.4419 15.792 82.9085 15.68 82.2899 15.68C81.4792 15.68 80.8179 15.904 80.3059 16.352C79.8045 16.7893 79.5539 17.376 79.5539 18.112C79.5539 18.848 79.8045 19.4347 80.3059 19.872C80.8179 20.3093 81.5059 20.528 82.3699 20.528ZM91.5766 14.8V26H90.4246V15.824H87.7846V14.8H91.5766ZM97.7419 14.704C99.2245 14.704 100.361 15.1947 101.15 16.176C101.939 17.1467 102.334 18.5227 102.334 20.304C102.334 21.552 102.121 22.608 101.694 23.472C101.267 24.336 100.67 24.992 99.9019 25.44C99.1339 25.8773 98.2379 26.096 97.2139 26.096C96.1045 26.096 95.2192 25.8933 94.5579 25.488L95.0219 24.56C95.5552 24.912 96.2805 25.088 97.1979 25.088C98.4352 25.088 99.4059 24.6987 100.11 23.92C100.814 23.1307 101.166 21.9893 101.166 20.496C101.166 20.2187 101.15 19.9147 101.118 19.584C100.841 20.192 100.398 20.6667 99.7899 21.008C99.1819 21.3387 98.4832 21.504 97.6939 21.504C96.9579 21.504 96.3019 21.3653 95.7259 21.088C95.1605 20.8107 94.7179 20.4213 94.3979 19.92C94.0779 19.408 93.9179 18.816 93.9179 18.144C93.9179 17.4613 94.0832 16.8587 94.4139 16.336C94.7445 15.8133 95.1979 15.4133 95.7739 15.136C96.3605 14.848 97.0165 14.704 97.7419 14.704ZM97.8699 20.528C98.4352 20.528 98.9312 20.4213 99.3579 20.208C99.7952 19.9947 100.137 19.7013 100.382 19.328C100.627 18.9547 100.75 18.5387 100.75 18.08C100.75 17.6533 100.633 17.2587 100.398 16.896C100.174 16.5333 99.8379 16.24 99.3899 16.016C98.9419 15.792 98.4085 15.68 97.7899 15.68C96.9792 15.68 96.3179 15.904 95.8059 16.352C95.3045 16.7893 95.0539 17.376 95.0539 18.112C95.0539 18.848 95.3045 19.4347 95.8059 19.872C96.3179 20.3093 97.0059 20.528 97.8699 20.528ZM103.812 29.104C104.441 28.0267 104.905 26.8747 105.204 25.648C105.503 24.4107 105.652 23.0667 105.652 21.616C105.652 20.1653 105.503 18.8267 105.204 17.6C104.905 16.3627 104.441 15.2053 103.812 14.128H104.9C105.497 15.088 105.956 16.2133 106.276 17.504C106.607 18.784 106.772 20.1547 106.772 21.616C106.772 23.0773 106.612 24.448 106.292 25.728C105.972 27.008 105.508 28.1333 104.9 29.104H103.812ZM121.361 14.8V15.616L116.673 26H115.425L120.033 15.824H114.273V17.92H113.137V14.8H121.361ZM126.139 14.8V26H124.987V15.824H122.347V14.8H126.139ZM138.336 23.056H136.096V26H134.944V23.056H128.624V22.224L134.56 14.8H135.84L130.112 22.032H134.976V19.44H136.096V22.032H138.336V23.056ZM139.679 21.168H143.871V22.16H139.679V21.168ZM153.121 24.976V26H145.265V25.184L149.921 20.624C150.507 20.048 150.902 19.552 151.105 19.136C151.318 18.7093 151.425 18.2827 151.425 17.856C151.425 17.1947 151.195 16.6827 150.737 16.32C150.289 15.9467 149.643 15.76 148.801 15.76C147.489 15.76 146.47 16.176 145.745 17.008L144.929 16.304C145.366 15.792 145.921 15.3973 146.593 15.12C147.275 14.8427 148.043 14.704 148.897 14.704C150.038 14.704 150.939 14.976 151.601 15.52C152.273 16.0533 152.609 16.7893 152.609 17.728C152.609 18.304 152.481 18.8587 152.225 19.392C151.969 19.9253 151.483 20.5387 150.769 21.232L146.961 24.976H153.121ZM157.51 19.392C159.132 19.392 160.31 19.6853 161.046 20.272C161.793 20.848 162.166 21.6587 162.166 22.704C162.166 23.3547 162.012 23.936 161.702 24.448C161.404 24.96 160.95 25.3653 160.342 25.664C159.734 25.952 158.988 26.096 158.102 26.096C157.302 26.096 156.54 25.968 155.814 25.712C155.1 25.4453 154.524 25.0933 154.086 24.656L154.646 23.744C155.02 24.128 155.51 24.4427 156.118 24.688C156.726 24.9227 157.382 25.04 158.086 25.04C159.014 25.04 159.729 24.832 160.23 24.416C160.742 24 160.998 23.4453 160.998 22.752C160.998 21.984 160.71 21.4027 160.134 21.008C159.569 20.6133 158.609 20.416 157.254 20.416H154.87L155.446 14.8H161.574V15.824H156.454L156.07 19.392H157.51ZM163.757 21.168H167.949V22.16H163.757V21.168ZM174.327 26.096C173.463 26.096 172.69 25.8667 172.007 25.408C171.335 24.9493 170.807 24.2933 170.423 23.44C170.05 22.576 169.863 21.5627 169.863 20.4C169.863 19.2373 170.05 18.2293 170.423 17.376C170.807 16.512 171.335 15.8507 172.007 15.392C172.69 14.9333 173.463 14.704 174.327 14.704C175.191 14.704 175.959 14.9333 176.631 15.392C177.314 15.8507 177.847 16.512 178.231 17.376C178.615 18.2293 178.807 19.2373 178.807 20.4C178.807 21.5627 178.615 22.576 178.231 23.44C177.847 24.2933 177.314 24.9493 176.631 25.408C175.959 25.8667 175.191 26.096 174.327 26.096ZM174.327 25.04C174.978 25.04 175.549 24.8587 176.039 24.496C176.541 24.1333 176.93 23.6053 177.207 22.912C177.485 22.2187 177.623 21.3813 177.623 20.4C177.623 19.4187 177.485 18.5813 177.207 17.888C176.93 17.1947 176.541 16.6667 176.039 16.304C175.549 15.9413 174.978 15.76 174.327 15.76C173.677 15.76 173.101 15.9413 172.599 16.304C172.109 16.6667 171.725 17.1947 171.447 17.888C171.17 18.5813 171.031 19.4187 171.031 20.4C171.031 21.3813 171.17 22.2187 171.447 22.912C171.725 23.6053 172.109 24.1333 172.599 24.496C173.101 24.8587 173.677 25.04 174.327 25.04ZM184.921 26.096C184.057 26.096 183.284 25.8667 182.601 25.408C181.929 24.9493 181.401 24.2933 181.017 23.44C180.644 22.576 180.457 21.5627 180.457 20.4C180.457 19.2373 180.644 18.2293 181.017 17.376C181.401 16.512 181.929 15.8507 182.601 15.392C183.284 14.9333 184.057 14.704 184.921 14.704C185.785 14.704 186.553 14.9333 187.225 15.392C187.908 15.8507 188.441 16.512 188.825 17.376C189.209 18.2293 189.401 19.2373 189.401 20.4C189.401 21.5627 189.209 22.576 188.825 23.44C188.441 24.2933 187.908 24.9493 187.225 25.408C186.553 25.8667 185.785 26.096 184.921 26.096ZM184.921 25.04C185.572 25.04 186.142 24.8587 186.633 24.496C187.134 24.1333 187.524 23.6053 187.801 22.912C188.078 22.2187 188.217 21.3813 188.217 20.4C188.217 19.4187 188.078 18.5813 187.801 17.888C187.524 17.1947 187.134 16.6667 186.633 16.304C186.142 15.9413 185.572 15.76 184.921 15.76C184.27 15.76 183.694 15.9413 183.193 16.304C182.702 16.6667 182.318 17.1947 182.041 17.888C181.764 18.5813 181.625 19.4187 181.625 20.4C181.625 21.3813 181.764 22.2187 182.041 22.912C182.318 23.6053 182.702 24.1333 183.193 24.496C183.694 24.8587 184.27 25.04 184.921 25.04Z" fill="white"/>
<circle cx="20" cy="20" r="20" fill="white"/>
<path d="M22.8396 23.55L24.2396 22.15C24.4281 21.9638 24.6667 21.8363 24.9263 21.7831C25.1859 21.7298 25.4554 21.7531 25.7021 21.85L27.4083 22.5313C27.6576 22.6324 27.8713 22.8051 28.0226 23.0276C28.1738 23.25 28.2559 23.5123 28.2583 23.7813V26.9063C28.2569 27.0893 28.2184 27.2701 28.1452 27.4378C28.0721 27.6055 27.9657 27.7567 27.8326 27.8823C27.6995 28.0078 27.5423 28.1051 27.3706 28.1683C27.1988 28.2315 27.0161 28.2593 26.8333 28.25C14.8771 27.5063 12.4646 17.3813 12.0083 13.5063C11.9871 13.316 12.0065 13.1234 12.0651 12.9411C12.1237 12.7588 12.2202 12.591 12.3484 12.4487C12.4765 12.3065 12.6333 12.1929 12.8084 12.1156C12.9836 12.0382 13.1731 11.9989 13.3646 12H16.3833C16.6527 12.0008 16.9157 12.0822 17.1384 12.2337C17.3612 12.3851 17.5336 12.5998 17.6333 12.85L18.3146 14.5563C18.4147 14.8019 18.4403 15.0717 18.388 15.3318C18.3358 15.5919 18.2081 15.8308 18.0208 16.0188L16.6208 17.4188C16.6208 17.4188 17.4271 22.875 22.8396 23.55Z" fill="#2B7AF1"/>
</svg>
