<svg width="40" height="40" viewBox="0 0 40 40" fill="none" xmlns="http://www.w3.org/2000/svg">
<circle cx="20" cy="20" r="20" fill="#2B7AF1"/>
<path d="M28.4025 12.8923H11.5975C11.4391 12.8925 11.2871 12.9532 11.1751 13.0611C11.0631 13.1689 11.0001 13.3151 11 13.4677V14.6251C11 14.6784 11.0601 14.7396 11.1092 14.7643L19.9423 19.6205C19.9649 19.633 19.9905 19.6394 20.0166 19.6392C20.0432 19.6393 20.0694 19.6324 20.0923 19.6194L28.6585 14.7691C28.7066 14.7432 28.8343 14.6748 28.8822 14.6433C28.9402 14.6053 29 14.5708 29 14.5027V13.4674C28.9998 13.315 28.9368 13.1688 28.8248 13.061C28.7128 12.9532 28.5609 12.8925 28.4025 12.8923Z" fill="white"/>
<path d="M28.9254 16.3701C28.9024 16.3575 28.8763 16.3509 28.8498 16.3511C28.8234 16.3513 28.7974 16.3581 28.7746 16.371L23.927 19.1163C23.9077 19.1271 23.8911 19.142 23.8786 19.1598C23.8661 19.1776 23.8579 19.1979 23.8546 19.2192C23.8514 19.2405 23.8531 19.2622 23.8598 19.2828C23.8664 19.3033 23.8778 19.3222 23.8931 19.3379L28.7414 24.3682C28.7553 24.3827 28.7722 24.3943 28.7909 24.4022C28.8097 24.4101 28.83 24.4142 28.8506 24.4141C28.8901 24.4141 28.9281 24.3989 28.9561 24.3719C28.9841 24.345 28.9999 24.3084 28.9999 24.2703V16.495C29 16.4697 28.9932 16.4448 28.9801 16.4229C28.967 16.401 28.9481 16.3828 28.9254 16.3701Z" fill="white"/>
<path d="M22.53 20.038C22.507 20.0139 22.4761 19.9981 22.4425 19.9933C22.4088 19.9884 22.3745 19.9949 22.3451 20.0115L20.4021 21.1119C20.2882 21.1753 20.1592 21.209 20.0278 21.2098C19.8963 21.2106 19.7668 21.1785 19.6521 21.1167L17.9421 20.1764C17.9145 20.1613 17.8826 20.155 17.8511 20.1585C17.8195 20.1619 17.7899 20.175 17.7666 20.1957L11.273 25.9931C11.256 26.0084 11.2429 26.0273 11.2349 26.0484C11.2268 26.0694 11.2239 26.092 11.2265 26.1143C11.2291 26.1366 11.2371 26.158 11.2498 26.1768C11.2625 26.1956 11.2796 26.2113 11.2997 26.2226C11.4007 26.2797 11.4981 26.307 11.5973 26.307H28.2304C28.2595 26.307 28.288 26.2988 28.3123 26.2834C28.3366 26.268 28.3557 26.2461 28.3672 26.2203C28.3788 26.1947 28.3824 26.1664 28.3775 26.1388C28.3726 26.1113 28.3594 26.0857 28.3396 26.0653L22.53 20.038Z" fill="white"/>
<path d="M16.3378 19.5101C16.355 19.4948 16.3682 19.4758 16.3764 19.4547C16.3846 19.4335 16.3875 19.4109 16.3849 19.3885C16.3822 19.366 16.3742 19.3445 16.3613 19.3257C16.3485 19.3068 16.3312 19.2912 16.3109 19.2799L11.2228 16.4827C11.2001 16.4703 11.1744 16.4638 11.1483 16.464C11.1222 16.4641 11.0965 16.4709 11.074 16.4835C11.0514 16.4962 11.0327 16.5144 11.0197 16.5362C11.0068 16.558 11 16.5827 11 16.6078V23.9473C10.9998 23.9753 11.0082 24.0028 11.0241 24.0263C11.04 24.0498 11.0627 24.0683 11.0894 24.0795C11.1161 24.0907 11.1456 24.0941 11.1743 24.0893C11.203 24.0846 11.2296 24.0718 11.2508 24.0526L16.3378 19.5101Z" fill="white"/>
</svg>
